<?xml version="1.0"?>

<!DOCTYPE svg PUBLIC '-//W3C//DTD SVG 1.0//EN' 'http://www.w3.org/TR/2001/REC-SVG-20010904/DTD/svg10.dtd'>
<svg fill-opacity="1" xmlns:xlink="http://www.w3.org/1999/xlink" color-rendering="auto" color-interpolation="auto" stroke="black" text-rendering="auto" stroke-linecap="square" stroke-miterlimit="10" stroke-opacity="1" shape-rendering="auto" fill="black" stroke-dasharray="none" font-weight="normal" stroke-width="1" xmlns="http://www.w3.org/2000/svg" font-family="&apos;Dialog&apos;" font-style="normal" stroke-linejoin="miter" font-size="12" stroke-dashoffset="0" image-rendering="auto">
  <!--Unicode Character 'BICYCLE' (U+1F6B2)-->
  <defs id="genericDefs" />
  <g>
    <g>
      <path d="M275.9062 234.7031 Q275.4844 235.4062 274.2188 235.4062 Q273.2344 235.4062 270.7031 232.7344 Q270.4219 233.0156 270.4219 233.5781 Q270.4219 235.125 270.9844 238.7812 Q271.5469 242.4375 271.5469 244.4062 Q271.5469 264.9375 256.3594 279.7031 Q241.1719 294.4688 220.6406 294.4688 Q204.0469 294.4688 191.0391 284.6953 Q178.0312 274.9219 172.5469 259.0312 Q171.2812 259.3125 153 262.9688 Q149.625 267.4688 147.2344 273.6562 Q147.7969 274.0781 149.7656 274.2188 Q150.8906 275.2031 150.8906 278.2969 Q150.8906 281.3906 149.7656 282.6562 L134.0156 282.6562 Q132.1875 280.5469 132.1875 278.2969 Q132.1875 274.2188 135.2812 274.0781 Q138.375 273.9375 141.4688 273.9375 Q144.9844 267.8906 147.2344 261.9844 Q139.6406 256.2188 139.6406 249.6094 Q139.6406 246.375 142.875 242.1562 L96.0469 196.875 Q95.2031 197.4375 95.2031 198.7031 Q95.2031 199.6875 102.375 208.6875 Q109.9688 218.1094 111.0938 221.625 Q114.4688 232.5938 114.4688 247.2188 Q114.4688 255.7969 112.6406 259.3125 L110.6719 259.7344 Q106.3125 269.0156 101.9531 275.0625 Q95.625 283.7812 84.5156 289.125 Q73.4062 294.4688 62.2969 294.4688 Q41.3438 294.4688 26.4375 279.4219 Q11.5312 264.375 11.5312 243.4219 Q11.5312 223.3125 24.4688 209.3906 Q36.9844 195.8906 57.2344 192.6562 Q57.2344 191.6719 55.5469 190.125 Q57.2344 187.1719 59.625 187.1719 Q63.8438 187.1719 72.7031 189.4219 Q82.2656 191.9531 84.7969 194.2031 L86.2031 194.2031 L102.2344 152.7188 Q95.2031 148.3594 95.2031 138.2344 Q95.2031 134.4375 102.7969 126.8438 Q103.2188 126.5625 104.3438 126.5625 Q106.4531 126.5625 108.3516 128.6016 Q110.25 130.6406 110.25 132.75 Q110.25 134.4375 108 137.25 Q106.1719 139.3594 104.4844 141.4688 Q103.7812 142.4531 103.7812 142.7344 Q103.7812 145.125 107.4375 145.9688 Q111.6562 146.9531 112.3594 148.2188 Q112.5 150.1875 112.5 151.0312 Q112.5 153.7031 108.8438 162.5625 Q106.3125 168.75 103.7812 174.7969 L160.4531 219.375 Q161.1562 219.375 161.5781 218.3906 Q162 217.4062 167.9062 202.9219 Q175.3594 184.6406 179.8594 174.0938 Q179.0156 172.8281 172.4062 169.7344 Q166.5 166.9219 166.5 164.9531 Q166.5 160.4531 176.625 160.4531 Q181.2656 160.4531 189.4219 161.0156 Q198.5625 161.5781 202.2188 161.7188 Q205.0312 164.5312 205.0312 167.3438 Q205.0312 170.7188 199.4062 173.5312 Q194.625 175.9219 190.8281 175.9219 Q190.125 175.9219 188.7188 175.6406 Q187.3125 175.3594 186.6094 175.3594 Q185.7656 175.3594 183.375 180.6328 Q180.9844 185.9062 180.9844 187.1719 Q180.9844 189.2812 188.8594 199.5469 L191.3906 197.8594 Q200.5312 192.0938 205.7344 190.4062 Q211.9219 188.2969 222.6094 188.2969 Q232.4531 188.2969 236.5312 189.5625 Q245.3906 192.375 255.2344 200.3906 Q264.5156 207.9844 269.7188 216.2812 Q273.5156 222.1875 275.0625 229.2188 Q275.2031 231.0469 275.9062 234.7031 ZM259.1719 224.5781 Q245.3906 201.0938 220.9219 201.0938 Q206.5781 201.0938 197.5781 208.4062 Q204.1875 217.8281 218.1094 233.1562 Q219.7969 233.2969 222.8906 234 Q222.8906 234 228.6562 237.5156 L259.1719 224.5781 ZM212.0625 234.1406 L191.9531 211.9219 Q181.6875 221.625 178.3125 235.8281 L212.0625 234.1406 ZM263.5312 243.7031 Q263.5312 239.4844 261.2812 229.0781 Q249.0469 233.2969 229.9219 241.5938 Q227.9531 243.4219 223.4531 246.5156 Q221.9062 247.2188 211.6406 249.75 Q201.375 252.2812 180.4219 257.0625 Q183.9375 270.2812 195.4688 278.4375 Q206.5781 286.3125 220.6406 286.3125 Q238.5 286.3125 251.0156 273.9375 Q263.5312 261.5625 263.5312 243.7031 ZM184.7812 201.375 Q180.8438 196.4531 178.0312 193.6406 L162.8438 236.9531 L169.1719 236.9531 Q169.1719 220.2188 184.7812 201.375 ZM216.8438 244.4062 Q215.7188 243.2812 215.7188 241.875 L178.3125 248.4844 Q178.875 251.2969 178.875 253.5469 L216.8438 244.4062 ZM157.9219 227.3906 L101.25 183.9375 Q100.8281 185.625 99.5625 188.8594 L148.9219 238.0781 Q153.4219 238.2188 155.25 234.7031 Q156.6562 231.0469 157.9219 227.3906 ZM171.2812 255.0938 Q170.7188 253.4062 170.7188 250.4531 L167.2031 250.4531 Q166.6406 252.1406 165.5156 255.6562 Q169.4531 255.0938 171.2812 255.0938 ZM104.9062 243 Q104.9062 225.7031 89.5781 210.7969 Q87.4688 216.5625 82.125 227.5312 Q75.7969 232.7344 68.4844 242.2969 L104.2031 248.7656 Q104.2031 247.9219 104.5547 245.9531 Q104.9062 243.9844 104.9062 243 ZM81.2812 205.5938 Q76.9219 204.0469 67.9219 201.2344 L63.1406 234.2812 Q69.1875 230.0625 73.6875 221.0625 Q77.4844 213.3281 81.2812 205.5938 ZM103.7812 253.125 Q93.5156 251.5781 72.9844 248.3438 Q66.9375 247.9219 57.9375 246.5156 Q56.1094 245.9531 56.1094 243 Q56.1094 241.5938 57.1641 239.5547 Q58.2188 237.5156 58.5 236.8125 Q59.4844 233.2969 61.5234 219.2344 Q63.5625 205.1719 63.5625 201.2344 L55.8281 201.2344 Q51.6094 201.2344 43.3125 205.3125 Q32.4844 210.6562 25.8047 221.1328 Q19.125 231.6094 19.125 243.7031 Q19.125 261.7031 31.7109 274.0078 Q44.2969 286.3125 62.2969 286.3125 Q77.9062 286.3125 89.0156 277.3828 Q100.125 268.4531 103.7812 253.125 Z" stroke="none" />
    </g>
  </g>
</svg>
