<svg xmlns="http://www.w3.org/2000/svg" xmlns:xlink="http://www.w3.org/1999/xlink" version="1.1" id="Layer_1" x="0px" y="0px" width="100px" height="100px" viewBox="0 0 100 100" enable-background="new 0 0 100 100" xml:space="preserve">
<path d="M70.001,72.5L70,50c0-17.263-13.988-31.25-31.25-31.25C21.487,18.749,7.5,32.737,7.499,50  c0,17.262,13.988,31.25,31.251,31.25h28.125c1.726,0,3.125-1.4,3.125-3.125l0.001-0.627L88.75,77.5v3.75h3.751V72.5H70.001z   M38.751,70c-11.052,0-20.002-8.951-20.001-20.001c0-11.05,8.95-19.999,20-20C49.801,29.999,58.751,38.949,58.751,50  C58.75,61.049,49.801,70,38.751,70z"/>
</svg>