<?xml version="1.0" encoding="utf-8"?>
<!-- Generator: Adobe Illustrator 15.0.0, SVG Export Plug-In . SVG Version: 6.00 Build 0)  -->
<!DOCTYPE svg PUBLIC "-//W3C//DTD SVG 1.1//EN" "http://www.w3.org/Graphics/SVG/1.1/DTD/svg11.dtd">
<svg version="1.1" id="Calque_1" xmlns="http://www.w3.org/2000/svg" xmlns:xlink="http://www.w3.org/1999/xlink" x="0px" y="0px"
	 width="100px" height="100px" viewBox="0 0 100 100" enable-background="new 0 0 100 100" xml:space="preserve">
<g id="Your_Icon">
	<path d="M97.779,60.932l-5.346-4.976c-1.39-1.294-2.213-3.115-2.271-5.011l-0.011-0.09l0.009-0.303
		c0.048-1.986,0.937-3.881,2.437-5.201l5.494-4.808c0.863-0.757,1.161-1.98,0.737-3.047l-4.693-11.839
		c-0.268-0.674-0.78-1.205-1.446-1.493c-0.379-0.163-0.764-0.235-1.179-0.219l-7.288,0.259c-1.052,0.039-2.123-0.164-3.099-0.586
		c-0.871-0.376-1.634-0.901-2.278-1.565l-0.147-0.156c-1.313-1.428-1.99-3.36-1.864-5.301l0.484-7.287
		c0.078-1.147-0.578-2.223-1.633-2.679L63.996,1.579c-1.053-0.455-2.285-0.197-3.066,0.643l-4.974,5.34
		c-1.374,1.478-3.319,2.308-5.342,2.277c-0.939-0.015-1.854-0.212-2.719-0.586c-0.969-0.418-1.848-1.06-2.543-1.851l-4.81-5.496
		c-0.268-0.305-0.592-0.543-0.965-0.703c-0.667-0.288-1.406-0.3-2.079-0.034L25.656,5.865c-1.066,0.422-1.754,1.476-1.713,2.623
		l0.261,7.287c0.074,1.966-0.678,3.896-2.069,5.299l-0.096,0.097c-1.444,1.4-3.428,2.129-5.444,1.997l-7.29-0.484
		c-1.143-0.077-2.218,0.58-2.674,1.634L1.579,36.006c-0.456,1.054-0.197,2.286,0.644,3.065l5.344,4.978
		c1.414,1.316,2.241,3.177,2.274,5.18l-0.008,0.375c-0.089,1.936-0.977,3.775-2.431,5.044l-5.495,4.809
		c-0.862,0.757-1.159,1.98-0.736,3.047l4.694,11.842c0.267,0.674,0.78,1.203,1.448,1.492c0.372,0.161,0.768,0.236,1.174,0.221
		l7.29-0.262c1.048-0.04,2.121,0.166,3.097,0.588c0.858,0.37,1.606,0.885,2.34,1.629l0.189,0.207
		c1.245,1.409,1.889,3.301,1.764,5.186l-0.487,7.289c-0.075,1.146,0.583,2.22,1.636,2.675l11.689,5.054
		c1.053,0.455,2.285,0.197,3.065-0.641l4.949-5.314c1.34-1.439,3.234-2.279,5.263-2.305l0.142,0.004
		c0.923,0.012,1.827,0.207,2.688,0.578c0.959,0.414,1.824,1.043,2.511,1.824l4.837,5.527c0.27,0.305,0.596,0.543,0.965,0.703
		c0.665,0.288,1.404,0.299,2.08,0.032l11.842-4.694c1.066-0.422,1.756-1.476,1.713-2.619l-0.262-7.308
		c-0.064-1.888,0.633-3.749,1.917-5.124l0.06-0.074l0.238-0.228c1.44-1.369,3.406-2.08,5.4-1.948l7.283,0.482
		c1.144,0.076,2.22-0.579,2.676-1.635l5.052-11.688C98.877,62.943,98.619,61.712,97.779,60.932z M44.198,63.423
		c-7.402-3.2-10.82-11.823-7.62-19.226c3.199-7.399,11.823-10.819,19.225-7.621c7.403,3.201,10.82,11.827,7.621,19.227
		C60.225,63.206,51.6,66.624,44.198,63.423z"/>
</g>
</svg>
